<svg id="Layer_1" data-name="Layer 1" xmlns="http://www.w3.org/2000/svg" viewBox="0 0 162.75 120.14">
  <defs>
    <style>
      .cls-1 {
        fill: #fff;
      }

      .cls-2 {
        fill: #182b53;
      }

      .cls-3 {
        fill: none;
        stroke: #162a53;
        stroke-width: 3px;
      }

      .cls-3, .cls-5 {
        stroke-miterlimit: 10;
      }

      .cls-4 {
        fill: #162a53;
      }

      .cls-5 {
        fill: #fdfefe;
        stroke: #182b53;
        stroke-width: 0.25px;
      }
    </style>
  </defs>
  <title>logo</title>
  <g>
    <polygon class="cls-1" points="50.54 22.96 49.38 51.47 55.88 75.13 67.54 91.8 80.54 99.8 96.54 88.47 105.54 75.97 112.21 53.3 112.54 23.46 111.21 21.46 100.54 24.96 80.71 23.96 64.21 25.63 50.54 22.96"/>
    <path class="cls-2" d="M122,20.25l-9.33,3.53a14,14,0,0,1-6.51.83L91.1,23a11.67,11.67,0,0,0-2.78,0L74.84,24.72a13.21,13.21,0,0,1-5.9-.58L57.38,20.25c-11.51,67.35,31.91,83.5,31.91,83.5C134.79,82.09,122,20.25,122,20.25ZM89.32,99.43S50.39,85,60.71,24.57l10.35,3.48a11.84,11.84,0,0,0,5.29.52L88.45,27a10.47,10.47,0,0,1,2.49,0l13.48,1.49a12.58,12.58,0,0,0,5.84-.74l8.37-3.17S130.11,80,89.32,99.43Z" transform="translate(-8.67 -1.2)"/>
    <path class="cls-2" d="M77,86.41s9.25-2,14-1.07,10.58,3.72,11,1.82-2.23-2.64-2.23-2.64,1.65,1.57,1.16,2-8.26-3.64-15-2.4S77,86.41,77,86.41Z" transform="translate(-8.67 -1.2)"/>
    <polyline class="cls-3" points="93.21 51.13 93.21 75.96 86.03 75.96 86.03 44.31 68.22 44.31 59.75 37.34 106.42 37.3 106.45 43.92 100.49 43.92"/>
    <polygon class="cls-4" points="70 52.91 68.05 54.84 77.44 54.84 77.44 60.2 62.81 60.2 60.79 62.21 79.42 62.21 79.42 52.88 70 52.91"/>
    <polygon class="cls-4" points="70 66.77 68.05 68.7 77.44 68.7 77.44 74.06 62.81 74.06 60.79 76.07 79.42 76.07 79.42 66.74 70 66.77"/>
  </g>
  <g>
    <path class="cls-5" d="M24,120.75c.86-6.74-.78-12.89-2.79-19C17.86,91.42,14.32,81.13,12,70.47c-1.64-7.63-2.71-15.32-2-23.15.52-6.12,2.15-11.85,6.25-16.64a8,8,0,0,1,2-1.91,4.52,4.52,0,0,1-1,3.37,29.37,29.37,0,0,0-4.44,11.32,7.18,7.18,0,0,0,1.53-2.89,35.54,35.54,0,0,1,3.43-7.12,3.64,3.64,0,0,1,3.61-1.82c-.67,1.59-1.18,3.17-2,4.61C13.93,46.36,14,56.87,17,67.65,19.64,77,23.31,86,26.62,95.18c1.9,5.23,3.61,10.5,3.41,16.18A14,14,0,0,1,29,116.61,7,7,0,0,1,24,120.75Z" transform="translate(-8.67 -1.2)"/>
    <path class="cls-5" d="M18.21,43.05c1.66,4.8-.86,9.62,1.18,14.09.14-2.38.33-4.75.39-7.13,0-1.78.53-3.14,2.26-4a15.28,15.28,0,0,0,2.52-2c-.59,2.6-1.5,4.89-1.87,7.32-1.13,7.3.16,14.32,2.35,21.25a140.06,140.06,0,0,0,6.09,14.79c2.18,4.88,4.2,9.84,4.7,15.24.35,3.78-.19,7.31-3.34,9.93a4.78,4.78,0,0,1-.52.36,3.17,3.17,0,0,1-.44.17,22.13,22.13,0,0,1-.19-3c.35-5.17-1.29-9.91-3-14.64C25.09,86.66,21.49,78,19,69a59.14,59.14,0,0,1-2.57-17.36A22.67,22.67,0,0,1,18.21,43.05Z" transform="translate(-8.67 -1.2)"/>
    <path class="cls-5" d="M29.72,10.63c1.61-3.6,3.94-5.72,7.36-6.53a6.1,6.1,0,0,1,5.44,1.55c1,.84.56,2.06.35,3.1a7.37,7.37,0,0,1-1.5,2.77,46,46,0,0,0-5.86,9.76c-1.28,3.23-1.81,6.58.4,9.55C39,35,43.18,37.34,48.55,36.39c2.3-.41,3.07.33,3.66,2.77.54,2.21-.34,3.61-2.36,4.08a6.62,6.62,0,0,1-2.67.08,25.16,25.16,0,0,1-11-4.66c-4.92-3.67-6.41-8.91-4.43-15.12A36.75,36.75,0,0,1,36.92,14a24.25,24.25,0,0,0,1.75-2.83c1.06-2.1.15-3.5-2.22-3.57a6.45,6.45,0,0,0-3.46,1C32,9.13,31.05,9.78,29.72,10.63Z" transform="translate(-8.67 -1.2)"/>
    <path class="cls-5" d="M24.73,49.42c1.68,4,1,8.25,2,12.28,0-4.34-.28-8.74,4.52-11a1.72,1.72,0,0,1-.14,1.19c-3.1,7.85-1.71,15.45,1.18,23,1.65,4.3,4,8.26,5.83,12.49,1.5,3.51,2.43,7.11,1.37,10.94A10.07,10.07,0,0,1,37.75,102a2.37,2.37,0,0,1-.74-1.61c-.86-6.17-3.46-11.71-6.12-17.24a76.56,76.56,0,0,1-7.4-27.21C23.26,53.11,23.66,51,24.73,49.42Z" transform="translate(-8.67 -1.2)"/>
    <path class="cls-5" d="M33,63.21c.8-1.95.39-3.86,1.24-5.34a31.42,31.42,0,0,1,3.23-4,2,2,0,0,1-.21,1.83c-2.81,6.79-1.67,13.24,1.55,19.55,1.58,3.09,3.47,6,4.08,9.57a8.39,8.39,0,0,1-1.51,6.64c-.14-.15-.28-.24-.31-.35-2.23-6.67-5.92-12.73-8.13-19.41-1.48-4.49-2.6-9-2-13.85a11,11,0,0,1,1.18-4C33.58,56.85,32.55,59.93,33,63.21Z" transform="translate(-8.67 -1.2)"/>
    <path class="cls-5" d="M37.57,9.25c-2.62,2.9-5.07,5.57-7.46,8.3-.48.54-1.66,1.36-1.21,1.7.93.7,1.17-.78,1.79-1.22,1.12-.81,1.72-2.23,3.37-3a50.91,50.91,0,0,1-3,5.82c-.52.77-.22,1.5-.6,2.19a10.09,10.09,0,0,1-2.82,3.37,24.1,24.1,0,0,1-7.72,3.78,8.89,8.89,0,0,1,.82-3.58C23.16,20.44,26.63,15,32,11A8.36,8.36,0,0,1,37.57,9.25Z" transform="translate(-8.67 -1.2)"/>
    <path class="cls-5" d="M15.4,24.8a35.92,35.92,0,0,1,6.36-4.19,16.78,16.78,0,0,1-3.9,6A28.94,28.94,0,0,0,9.94,40.5a12,12,0,0,1-.48,1.34,2.67,2.67,0,0,1-.25.41C7,32,13.77,17.7,26.74,13.48c-1.44,2.11-2.43,4-4.41,5.24a20.7,20.7,0,0,0-6.52,5.45C15.66,24.37,15.53,24.59,15.4,24.8Z" transform="translate(-8.67 -1.2)"/>
    <path class="cls-5" d="M43.64,55.74c.5.61.73,1.19,0,1.78-3,2.43-3,5.67-2.37,9,.48,2.67,1.85,5,2.92,7.51a8.88,8.88,0,0,1,1,4.59,4,4,0,0,1-.35,1.2c-.22.46-.4,1.1-1,1.16s-.68-.6-.89-1c-2.73-4.84-5.38-9.72-5.95-15.41-.27-2.69-.25-5.33,1.45-7.89,1,1.49.71,2.92.62,4.31s-.7,2.77.34,4.16A11.23,11.23,0,0,1,43.64,55.74Z" transform="translate(-8.67 -1.2)"/>
    <path class="cls-5" d="M27.53,28.55,24,35.42l.32.23c1.72-2.26,2.82-5,5-7.06.76,3.44.66,6.49-1.81,9.26a69.41,69.41,0,0,1-5.59,6.26c-.41.36-.86,1-1.41.81s-.44-1-.52-1.58a11.11,11.11,0,0,1,.23-4.1,26.6,26.6,0,0,1,2.63-6.94A8.17,8.17,0,0,1,27.53,28.55Z" transform="translate(-8.67 -1.2)"/>
    <path class="cls-5" d="M31.62,5a6.38,6.38,0,0,1-4.17,2.86A16.14,16.14,0,0,0,23.2,9.54a2.73,2.73,0,0,0-1.32,1.39c2.35-.62,4.34-2,6.75-2-.26,1.47-.78,2.67-2.21,3.11-5.07,1.58-8.93,4.91-12.59,8.56-.36.36-.64.85-1.21,1C13.75,13.05,22.58,5.29,31.62,5Z" transform="translate(-8.67 -1.2)"/>
    <path class="cls-5" d="M30.22,36.87l-1.16,7.75.21.06,2.58-7.87a4.27,4.27,0,0,1,1.93,5.45,20.71,20.71,0,0,1-5.51,8.92c-.86.79-1.26.74-1.65-.49C25,45.36,26.22,40.85,30.22,36.87Z" transform="translate(-8.67 -1.2)"/>
    <path class="cls-5" d="M35.31,43.91v4.18c1-2.27,1-4.68,1-7.28.95.49,1.71.92,2.51,1.29.5.23.49.62.46,1.05a22.51,22.51,0,0,1-4.38,11.36c-.66.94-.86,0-1-.36-1.18-2.63-1.83-5.29-.18-8,.46-.75.81-1.57,1.21-2.36Z" transform="translate(-8.67 -1.2)"/>
    <path class="cls-5" d="M47.48,51c-.07-1.62-.09-3.24-.24-4.86-.08-.82.09-1.19,1-1.14A8.4,8.4,0,0,0,49.62,45c.66-.07,1,.15,1,.87-.21,3.57-.79,7-2.85,10.08-1.06,1.56-1.62,1.51-2.34-.29C44.26,52.8,45,50.1,46.21,47l1,4.07Z" transform="translate(-8.67 -1.2)"/>
    <path class="cls-5" d="M41.36,50.75c.11-2.16.24-4.32.32-6.48,0-.63.14-.78.83-.62,1.52.37,2.32,1,2.11,2.78a19.44,19.44,0,0,1-3.17,9.46c-.63.88-1.06,1-1.52-.16a9.4,9.4,0,0,1,.91-9.39v3.8a5,5,0,0,1,.28,1.62A1.46,1.46,0,0,1,41.36,50.75Z" transform="translate(-8.67 -1.2)"/>
    <path class="cls-5" d="M25.54,4.68c3.52-3.29,9.9-4.39,13.52-2.24Z" transform="translate(-8.67 -1.2)"/>
    <path class="cls-5" d="M41.36,50.75A4.22,4.22,0,0,1,41,53.37a8,8,0,0,1-.18-3.23Z" transform="translate(-8.67 -1.2)"/>
  </g>
  <g>
    <path class="cls-5" d="M156,121.17c-.86-6.74.78-12.89,2.79-19,3.4-10.33,6.94-20.63,9.22-31.29,1.64-7.63,2.71-15.32,2-23.15-.52-6.12-2.15-11.85-6.25-16.64a8,8,0,0,0-2-1.91,4.52,4.52,0,0,0,1,3.37,29.37,29.37,0,0,1,4.44,11.32A7.18,7.18,0,0,1,165.73,41a35.54,35.54,0,0,0-3.43-7.12A3.64,3.64,0,0,0,158.69,32c.67,1.59,1.18,3.17,2,4.61,5.5,10.13,5.39,20.63,2.4,31.42-2.6,9.39-6.27,18.39-9.59,27.53-1.9,5.23-3.61,10.5-3.41,16.18a14,14,0,0,0,1.08,5.25A7,7,0,0,0,156,121.17Z" transform="translate(-8.67 -1.2)"/>
    <path class="cls-5" d="M161.88,43.48c-1.66,4.8.86,9.62-1.18,14.09-.14-2.38-.33-4.75-.39-7.13,0-1.78-.53-3.14-2.26-4a15.28,15.28,0,0,1-2.52-2c.59,2.6,1.5,4.89,1.87,7.32C158.54,59,157.24,66,155,73A140.06,140.06,0,0,1,149,87.76c-2.18,4.88-4.2,9.84-4.7,15.24-.35,3.78.19,7.31,3.34,9.93a4.78,4.78,0,0,0,.52.36,3.17,3.17,0,0,0,.44.17,22.13,22.13,0,0,0,.19-3c-.35-5.17,1.29-9.91,3-14.64,3.22-8.78,6.82-17.43,9.3-26.47A59.14,59.14,0,0,0,163.65,52,22.67,22.67,0,0,0,161.88,43.48Z" transform="translate(-8.67 -1.2)"/>
    <path class="cls-5" d="M150.36,11c-1.61-3.6-3.94-5.72-7.36-6.53a6.1,6.1,0,0,0-5.44,1.55c-1,.84-.56,2.06-.35,3.1a7.37,7.37,0,0,0,1.5,2.77,46,46,0,0,1,5.86,9.76c1.28,3.23,1.81,6.58-.4,9.55-3.1,4.17-7.25,6.51-12.63,5.56-2.3-.41-3.07.33-3.66,2.77-.54,2.21.34,3.61,2.36,4.08a6.62,6.62,0,0,0,2.67.08,25.16,25.16,0,0,0,11-4.66c4.92-3.67,6.41-8.91,4.43-15.12a36.75,36.75,0,0,0-5.16-9.59,24.25,24.25,0,0,1-1.75-2.83c-1.06-2.1-.15-3.5,2.22-3.57a6.45,6.45,0,0,1,3.46,1C148.09,9.55,149,10.2,150.36,11Z" transform="translate(-8.67 -1.2)"/>
    <path class="cls-5" d="M155.35,49.84c-1.68,4-1,8.25-2,12.28,0-4.34.28-8.74-4.52-11a1.72,1.72,0,0,0,.14,1.19c3.1,7.85,1.71,15.45-1.18,23-1.65,4.3-4,8.26-5.83,12.49-1.5,3.51-2.43,7.11-1.37,10.94a10.07,10.07,0,0,0,1.73,3.68,2.37,2.37,0,0,0,.74-1.61c.86-6.17,3.46-11.71,6.12-17.24a76.56,76.56,0,0,0,7.4-27.21C156.82,53.53,156.43,51.39,155.35,49.84Z" transform="translate(-8.67 -1.2)"/>
    <path class="cls-5" d="M147.13,63.63c-.8-1.95-.39-3.86-1.24-5.34a31.42,31.42,0,0,0-3.23-4,2,2,0,0,0,.21,1.83c2.81,6.79,1.67,13.24-1.55,19.55-1.58,3.09-3.47,6-4.08,9.57a8.39,8.39,0,0,0,1.51,6.64c.14-.15.28-.24.31-.35,2.23-6.67,5.92-12.73,8.13-19.41,1.48-4.49,2.6-9,2-13.85a11,11,0,0,0-1.18-4C146.5,57.27,147.53,60.35,147.13,63.63Z" transform="translate(-8.67 -1.2)"/>
    <path class="cls-5" d="M142.51,9.68c2.62,2.9,5.07,5.57,7.46,8.3.48.54,1.66,1.36,1.21,1.7-.93.7-1.17-.78-1.79-1.22-1.12-.81-1.72-2.23-3.37-3a50.91,50.91,0,0,0,3,5.82c.52.77.22,1.5.6,2.19a10.09,10.09,0,0,0,2.82,3.37,24.1,24.1,0,0,0,7.72,3.78,8.89,8.89,0,0,0-.82-3.58c-2.4-6.17-5.87-11.58-11.28-15.57A8.36,8.36,0,0,0,142.51,9.68Z" transform="translate(-8.67 -1.2)"/>
    <path class="cls-5" d="M164.69,25.22A35.92,35.92,0,0,0,158.33,21a16.78,16.78,0,0,0,3.9,6,28.94,28.94,0,0,1,7.91,13.84,12,12,0,0,0,.48,1.34,2.67,2.67,0,0,0,.25.41c2.2-10.23-4.57-24.55-17.54-28.77,1.44,2.11,2.43,4,4.41,5.24a20.7,20.7,0,0,1,6.52,5.45C164.42,24.79,164.55,25,164.69,25.22Z" transform="translate(-8.67 -1.2)"/>
    <path class="cls-5" d="M136.45,56.17c-.5.61-.73,1.19,0,1.78,3,2.43,3,5.67,2.37,9-.48,2.67-1.85,5-2.92,7.51a8.88,8.88,0,0,0-1,4.59,4,4,0,0,0,.35,1.2c.22.46.4,1.1,1,1.16s.68-.6.89-1c2.73-4.84,5.38-9.72,5.95-15.41.27-2.69.25-5.33-1.45-7.89-1,1.49-.71,2.92-.62,4.31s.7,2.77-.34,4.16A11.23,11.23,0,0,0,136.45,56.17Z" transform="translate(-8.67 -1.2)"/>
    <path class="cls-5" d="M152.56,29l3.56,6.87-.32.23c-1.72-2.26-2.82-5-5-7.06-.76,3.44-.66,6.49,1.81,9.26a69.41,69.41,0,0,0,5.59,6.26c.41.36.86,1,1.41.81s.44-1,.52-1.58a11.11,11.11,0,0,0-.23-4.1,26.6,26.6,0,0,0-2.63-6.94A8.17,8.17,0,0,0,152.56,29Z" transform="translate(-8.67 -1.2)"/>
    <path class="cls-5" d="M148.47,5.41a6.38,6.38,0,0,0,4.17,2.86A16.14,16.14,0,0,1,156.89,10a2.73,2.73,0,0,1,1.32,1.39c-2.35-.62-4.34-2-6.75-2,.26,1.47.78,2.67,2.21,3.11,5.07,1.58,8.93,4.91,12.59,8.56.36.36.64.85,1.21,1C166.34,13.48,157.51,5.71,148.47,5.41Z" transform="translate(-8.67 -1.2)"/>
    <path class="cls-5" d="M149.87,37.29,151,45l-.21.06-2.58-7.87a4.27,4.27,0,0,0-1.93,5.45,20.71,20.71,0,0,0,5.51,8.92c.86.79,1.26.74,1.65-.49C155.13,45.78,153.87,41.27,149.87,37.29Z" transform="translate(-8.67 -1.2)"/>
    <path class="cls-5" d="M144.78,44.33v4.18c-1-2.27-1-4.68-1-7.28-.95.49-1.71.92-2.51,1.29-.5.23-.49.62-.46,1.05a22.51,22.51,0,0,0,4.38,11.36c.66.94.86,0,1-.36,1.18-2.63,1.83-5.29.18-8-.46-.75-.81-1.57-1.21-2.36Z" transform="translate(-8.67 -1.2)"/>
    <path class="cls-5" d="M132.61,51.47c.07-1.62.09-3.24.24-4.86.08-.82-.09-1.19-1-1.14a8.4,8.4,0,0,1-1.42-.07c-.66-.07-1,.15-1,.87.21,3.57.79,7,2.85,10.08,1.06,1.56,1.62,1.51,2.34-.29,1.12-2.83.38-5.54-.83-8.61l-1,4.07Z" transform="translate(-8.67 -1.2)"/>
    <path class="cls-5" d="M138.73,51.18c-.11-2.16-.24-4.32-.32-6.48,0-.63-.14-.78-.83-.62-1.52.37-2.32,1-2.11,2.78a19.44,19.44,0,0,0,3.17,9.46c.63.88,1.06,1,1.52-.16a9.4,9.4,0,0,0-.91-9.39v3.8a5,5,0,0,0-.28,1.62A1.46,1.46,0,0,0,138.73,51.18Z" transform="translate(-8.67 -1.2)"/>
    <path class="cls-5" d="M154.55,5.1C151,1.81,144.65.71,141,2.86Z" transform="translate(-8.67 -1.2)"/>
    <path class="cls-5" d="M138.73,51.18a4.22,4.22,0,0,0,.34,2.62,8,8,0,0,0,.18-3.23Z" transform="translate(-8.67 -1.2)"/>
  </g>
  <g>
    <path class="cls-2" d="M47.21,107.31,44,105.43l-1.74,2.95,3.54,2.09-.52.89-4.6-2.72,4.83-8.18L50,103.07l-.52.89-3.36-2-1.53,2.58,3.18,1.88Z" transform="translate(-8.67 -1.2)"/>
    <path class="cls-2" d="M50.48,106l0,4.06a17.59,17.59,0,0,1,0,1.83h0c.33-.49.69-1,1.1-1.47l2.48-3.21,1.23.41-4.71,5.61-1.12-.38-.28-7.29Z" transform="translate(-8.67 -1.2)"/>
    <path class="cls-2" d="M56.16,111.55a2.18,2.18,0,0,0,1.78,2.81,4.47,4.47,0,0,0,1.92.06l0,.91a5.53,5.53,0,0,1-2.31-.07A3.17,3.17,0,0,1,55,111.19c.44-2,2-3.33,3.91-2.9,2.17.48,2.33,2.52,2.06,3.74a4.71,4.71,0,0,1-.17.55Zm3.74-.09a1.77,1.77,0,0,0-1.25-2.34,2.06,2.06,0,0,0-2.29,1.56Z" transform="translate(-8.67 -1.2)"/>
    <path class="cls-2" d="M62.85,111.1c.1-.7.16-1.27.2-1.84l1.09.15-.09,1.13h0a2.51,2.51,0,0,1,2.41-1c.94.13,2.31.89,2,3.21l-.56,4-1.23-.17.55-3.89c.15-1.09-.13-2.05-1.28-2.21a1.76,1.76,0,0,0-1.82,1,1.79,1.79,0,0,0-.16.56l-.57,4.06L62.16,116Z" transform="translate(-8.67 -1.2)"/>
    <path class="cls-2" d="M72.45,108.45l-.18,2,1.77.16-.09.94-1.77-.17L71.84,115c-.08.84.12,1.34.8,1.4a2.78,2.78,0,0,0,.72,0l0,.93a3.06,3.06,0,0,1-1.11.07,1.72,1.72,0,0,1-1.28-.64,2.53,2.53,0,0,1-.31-1.81l.35-3.7-1.05-.1.09-.94,1.05.1.15-1.63Z" transform="translate(-8.67 -1.2)"/>
    <path class="cls-2" d="M77.31,109.14,74.43,109l.06-1,7,.4-.06,1-2.9-.17-.48,8.44-1.24-.07Z" transform="translate(-8.67 -1.2)"/>
    <path class="cls-2" d="M82,117.83l.23-6.82,1.24,0-.23,6.82Zm1.67-8.69a.77.77,0,0,1-1.53-.05.75.75,0,0,1,.8-.75A.74.74,0,0,1,83.65,109.14Z" transform="translate(-8.67 -1.2)"/>
    <path class="cls-2" d="M90.15,117.74a4.55,4.55,0,0,1-2,.37,3.24,3.24,0,0,1-3.35-3.52A3.46,3.46,0,0,1,88.54,111a4.14,4.14,0,0,1,1.71.37l-.29,1a2.87,2.87,0,0,0-1.43-.34,2.57,2.57,0,0,0-.11,5.13,3.5,3.5,0,0,0,1.53-.32Z" transform="translate(-8.67 -1.2)"/>
    <path class="cls-2" d="M92.86,114.28h0c.17-.24.4-.54.59-.78l2-2.38,1.49,0-2.59,2.84,3.06,4-1.51,0-2.4-3.23-.62.71,0,2.56-1.23,0-.15-10,1.23,0Z" transform="translate(-8.67 -1.2)"/>
    <path class="cls-2" d="M99,114.64a2.18,2.18,0,0,0,2.46,2.24,4.48,4.48,0,0,0,1.87-.45l.26.88a5.53,5.53,0,0,1-2.24.54,3.17,3.17,0,0,1-3.52-3.26c-.1-2.05,1-3.73,3-3.83,2.22-.11,2.91,1.81,3,3.06a4.61,4.61,0,0,1,0,.58Zm3.58-1.07a1.76,1.76,0,0,0-1.82-1.92,2.05,2.05,0,0,0-1.8,2.11Z" transform="translate(-8.67 -1.2)"/>
    <path class="cls-2" d="M106.48,108.55l.17,2,1.77-.16.08.94-1.77.16.32,3.66c.07.84.35,1.3,1,1.24a2.7,2.7,0,0,0,.71-.15l.14.92a3,3,0,0,1-1.08.26,1.72,1.72,0,0,1-1.38-.4,2.52,2.52,0,0,1-.63-1.73l-.33-3.7-1.05.09-.08-.94,1.05-.09L105.3,109Z" transform="translate(-8.67 -1.2)"/>
    <path class="cls-2" d="M110.16,116.26a.83.83,0,0,1,.74-1,.89.89,0,1,1-.74,1Z" transform="translate(-8.67 -1.2)"/>
    <path class="cls-2" d="M120.25,115.21a6.09,6.09,0,0,1-2.4.85,4.44,4.44,0,0,1-5.41-4,4.73,4.73,0,0,1,4.08-5.73,5.1,5.1,0,0,1,2.29.05l-.13,1a4.46,4.46,0,0,0-2-.08c-2.2.36-3.43,2-3,4.47.38,2.29,1.94,3.55,4.22,3.17a4.91,4.91,0,0,0,1.91-.71Z" transform="translate(-8.67 -1.2)"/>
    <path class="cls-2" d="M127.24,110.2a3.33,3.33,0,0,1-2.37,4.36,3.24,3.24,0,0,1-4-2.57,3.33,3.33,0,0,1,2.36-4.36A3.23,3.23,0,0,1,127.24,110.2ZM122,111.63c.37,1.45,1.49,2.32,2.66,2s1.72-1.6,1.34-3.08c-.29-1.12-1.22-2.39-2.64-2S121.7,110.38,122,111.63Z" transform="translate(-8.67 -1.2)"/>
    <path class="cls-2" d="M128.64,108.36c-.3-.64-.57-1.15-.85-1.64l1-.47.53,1,0,0a2.35,2.35,0,0,1,1.39-2.06,2,2,0,0,1,2.33.4h0a2.81,2.81,0,0,1,.31-1.13,2.32,2.32,0,0,1,1.15-1.08c.81-.39,2.28-.43,3.3,1.71l1.73,3.63-1.09.52-1.66-3.49c-.56-1.18-1.34-1.69-2.24-1.26a1.61,1.61,0,0,0-.84,1.65,2,2,0,0,0,.18.6l1.82,3.8-1.09.52-1.76-3.69c-.47-1-1.24-1.48-2.09-1.08a1.85,1.85,0,0,0-.68,2.37l1.77,3.72-1.09.52Z" transform="translate(-8.67 -1.2)"/>
  </g>
</svg>
