<svg id="Layer_1" data-name="Layer 1" xmlns="http://www.w3.org/2000/svg" viewBox="0 0 75.5 88.5">
  <defs>
    <style>
      .cls-1 {
        fill: #fff;
      }

      .cls-2 {
        fill: #182b53;
      }

      .cls-3 {
        fill: none;
        stroke: #162a53;
        stroke-miterlimit: 10;
        stroke-width: 2px;
      }

      .cls-4 {
        fill: #162a53;
      }
    </style>
  </defs>
  <title>logo-01</title>
  <g>
    <path id="_Compound_Path_" data-name="&lt;Compound Path&gt;" class="cls-1" d="M70.27,7.24H6.18c-11.42,61.32,31.66,76,31.66,76C83,63.54,70.27,7.24,70.27,7.24Z"/>
    <path id="_Compound_Path_2" data-name="&lt;Compound Path&gt;" class="cls-2" d="M72.46,3.25H3.34c-12.31,66.14,34.14,82,34.14,82C86.17,64,72.46,3.25,72.46,3.25Zm-35,77.63S-4,66.71,7,7.63H68.76S81,61.88,37.51,80.88Z"/>
  </g>
  <g>
    <polyline class="cls-3" points="46.95 36.08 46.95 61.98 40.42 61.98 40.42 28.96 24.21 28.96 16.5 21.68 58.97 21.65 59 28.55 53.57 28.55"/>
    <polygon class="cls-4" points="26.45 38.55 24.39 40.23 34.32 40.23 34.32 44.88 18.84 44.88 16.71 46.62 36.42 46.62 36.42 38.53 26.45 38.55"/>
    <polygon class="cls-4" points="26.45 54.78 24.39 56.47 34.32 56.47 34.32 61.11 18.84 61.11 16.71 62.85 36.42 62.85 36.42 54.76 26.45 54.78"/>
  </g>
  <path class="cls-2" d="M10.34,15.79s20.57-4.41,31.22-2.39,23.51,8.26,24.43,4-5-5.88-5-5.88S64.7,15.05,63.6,16,45.23,7.89,30.17,10.64,10.34,15.79,10.34,15.79Z"/>
</svg>
