<svg height="512pt" viewBox="-73 0 512 512.15596" width="512pt" xmlns="http://www.w3.org/2000/svg">
    <path fill="#3F51B5" d="m1.78125 232.433594c-3.957031 10.554687-.867188 22.460937 7.730469 29.753906 16.289062 16.300781 49.789062 75.144531 66.371093 116.609375 11.316407 28.28125 36.164063 56.039063 55.015626 74.351563 8.113281 7.984374 12.667968 18.898437 12.644531 30.285156v3.121094c0 14.140624 11.460937 25.601562 25.601562 25.601562h136.53125c14.140625 0 25.601563-11.460938 25.601563-25.601562v-26.214844c-.078125-2.167969.746094-4.273438 2.277344-5.808594 31.496093-28.800781 31.855468-76.878906 31.855468-78.910156v-135.089844c.316406-18.273438-13.460937-33.722656-31.648437-35.488281-6.835938-.449219-13.648438 1.171875-19.550781 4.648437v-13.269531c.070312-12.296875-6.515626-23.667969-17.21875-29.726563-10.699219-6.058593-23.839844-5.855468-34.347657.535157-1.09375-11.511719-8.007812-21.660157-18.316406-26.890625-10.3125-5.230469-22.582031-4.820313-32.519531 1.09375v-14.132813c21.179687-12.019531 34.226562-34.527343 34.136718-58.878906 0-37.703125-30.566406-68.265625-68.269531-68.265625s-68.265625 30.5625-68.265625 68.265625c-.089844 24.351563 12.957032 46.859375 34.132813 58.878906v137.386719c.242187 10.074219-1.128907 20.117188-4.0625 29.757812-.914063 2.847657-3.246094 5.019532-6.152344 5.734376-2.734375.691406-5.632813-.070313-7.679687-2.015626-6.664063-6.355468-12.585938-13.449218-17.644532-21.144531-14.808594-22.152343-52.070312-63.53125-75.394531-63.53125-13.101563-.273437-25.152344 7.132813-30.828125 18.945313zm124.695312-164.011719c0-28.277344 22.921876-51.199219 51.199219-51.199219 28.277344 0 51.199219 22.921875 51.199219 51.199219.082031 14.601563-6.136719 28.527344-17.066406 38.214844v-38.214844c0-18.851563-15.28125-34.132813-34.132813-34.132813-18.851562 0-34.132812 15.28125-34.132812 34.132813v38.214844c-10.925781-9.6875-17.148438-23.613281-17.066407-38.214844zm-32.699218 218.070313c5.785156 8.773437 12.550781 16.859374 20.164062 24.105468 6.277344 5.9375 15.15625 8.253906 23.535156 6.136719 8.539063-2.128906 15.394532-8.480469 18.175782-16.828125 3.53125-11.398438 5.207031-23.289062 4.957031-35.21875v-196.265625c0-9.425781 7.640625-17.066406 17.066406-17.066406s17.066407 7.640625 17.066407 17.066406v179.199219c0 4.714844 3.820312 8.535156 8.535156 8.535156 4.710937 0 8.53125-3.820312 8.53125-8.535156v-76.796875c0-9.425781 7.644531-17.066407 17.066406-17.066407 9.425781 0 17.070312 7.640626 17.070312 17.066407v76.796875c0 4.714844 3.820313 8.535156 8.53125 8.535156 4.714844 0 8.535157-3.820312 8.535157-8.535156v-51.199219c0-9.425781 7.640625-17.066406 17.066406-17.066406s17.066406 7.640625 17.066406 17.066406v59.734375c0 4.710938 3.820313 8.53125 8.53125 8.53125 4.714844 0 8.535157-3.820312 8.535157-8.53125v-17.066406c-.011719-4.527344 1.792968-8.871094 5.007812-12.058594 3.519531-3.488281 8.367188-5.296875 13.3125-4.964844 9.21875 1.203125 16.039062 9.171875 15.8125 18.464844v135.089844c0 .417968-.433594 42.667968-26.316406 66.324218-5.058594 4.769532-7.894532 11.441407-7.816406 18.394532v26.214844c0 4.714843-3.820313 8.535156-8.535157 8.535156h-136.53125c-4.714843 0-8.535156-3.820313-8.535156-8.535156v-3.121094c.011719-15.996094-6.414063-31.324219-17.824219-42.53125-14.457031-14.035156-40.3125-41.609375-51.046875-68.453125-17.5625-43.878907-52.308593-104.476563-70.160156-122.328125-4.0625-4.058594-5.421875-7.816406-4.039063-11.160156 3.09375-5.359376 8.882813-8.589844 15.070313-8.40625 11.597656 0 43.042969 28.75 61.167969 55.9375zm0 0" />
    <path fill="#3F51B5" d="m322.742188 367.089844c4.714843 0 8.535156-3.820313 8.535156-8.535156v-51.199219c0-4.710938-3.820313-8.53125-8.535156-8.53125-4.710938 0-8.53125 3.820312-8.53125 8.53125v51.199219c0 4.714843 3.820312 8.535156 8.53125 8.535156zm0 0" />
    <path fill="#3F51B5" d="m314.210938 418.289062c2.261718 0 4.433593-.898437 6.03125-2.5 6.492187-6.007812 10.441406-14.273437 11.035156-23.101562-.007813-4.609375-3.71875-8.355469-8.328125-8.410156-4.660157-.089844-8.539063 3.558594-8.738281 8.214844-.640626 4.332031-2.773438 8.304687-6.035157 11.230468-2.4375 2.441406-3.167969 6.109375-1.847656 9.296875 1.320313 3.191407 4.429687 5.269531 7.882813 5.269531zm0 0" />
    <path fill="#3F51B5" d="m186.210938 478.023438h8.53125c4.714843 0 8.535156-3.820313 8.535156-8.535157 0-4.710937-3.820313-8.53125-8.535156-8.53125h-8.53125c-4.714844 0-8.535157 3.820313-8.535157 8.53125 0 4.714844 3.820313 8.535157 8.535157 8.535157zm0 0" />
    <path fill="#3F51B5" d="m228.875 478.023438h59.734375c4.714844 0 8.535156-3.820313 8.535156-8.535157 0-4.710937-3.820312-8.53125-8.535156-8.53125h-59.734375c-4.710938 0-8.53125 3.820313-8.53125 8.53125 0 4.714844 3.820312 8.535157 8.53125 8.535157zm0 0" />
    <path fill="#3F51B5" d="m109.410156 141.289062c3.40625 0 6.484375-2.019531 7.835938-5.144531 1.351562-3.125.71875-6.753906-1.613282-9.234375-29.566406-31.25-31.171874-79.644531-3.738281-112.785156 2.027344-2.339844 2.628907-5.59375 1.574219-8.503906-1.058594-2.910156-3.609375-5.019532-6.667969-5.511719-3.058593-.492187-6.140625.710937-8.058593 3.144531-32.90625 39.765625-31 97.828125 4.449218 135.347656 1.613282 1.714844 3.863282 2.6875 6.21875 2.6875zm0 0" />
    <path fill="#3F51B5" d="m257.320312 118.683594c2.011719 1.03125 4.355469 1.222656 6.507813.527344 2.15625-.695313 3.945313-2.214844 4.976563-4.230469 18.65625-36.328125 13.859374-80.28125-12.195313-111.726563-1.914063-2.433594-5-3.636718-8.058594-3.144531-3.054687.492187-5.605469 2.601563-6.664062 5.511719-1.058594 2.910156-.457031 6.164062 1.574219 8.503906 21.710937 26.195312 25.707031 62.8125 10.164062 93.074219-2.152344 4.191406-.496094 9.332031 3.695312 11.484375zm0 0" />
</svg>